<?xml version="1.0" encoding="UTF-8"?>
<svg id="Layer_1" data-name="Layer 1" xmlns="http://www.w3.org/2000/svg" viewBox="0 0 448 448">
  <defs>
    <style>
      .cls-1 {
        fill: #fb6718;
      }
    </style>
  </defs>
  <path class="cls-1" d="M416,0H31.9C14.3,0,0,14.5,0,32.3V415.7c0,17.8,14.3,32.3,31.9,32.3H416c17.6,0,32-14.5,32-32.3V32.3C448,14.5,433.6,0,416,0ZM135.4,384H69V170.2h66.5v213.8h-.1Zm-33.2-243c-21.3,0-38.5-17.3-38.5-38.5s17.2-38.5,38.5-38.5,38.5,17.3,38.5,38.5-17.2,38.5-38.5,38.5Zm282.1,243h-66.4v-104c0-24.8-.5-56.7-34.5-56.7s-39.9,27-39.9,54.9v105.8h-66.4V170.2h63.7v29.2h.9c8.9-16.8,30.6-34.5,62.9-34.5,67.2,0,79.7,44.3,79.7,101.9v117.2Z"/>
</svg>