<?xml version="1.0" encoding="UTF-8"?>
<svg id="Layer_1" data-name="Layer 1" xmlns="http://www.w3.org/2000/svg" viewBox="0 0 449 449">
  <defs>
    <style>
      .cls-1 {
        fill: #fb6718;
        stroke: #fb6718;
        stroke-miterlimit: 10;
      }
    </style>
  </defs>
  <path class="cls-1" d="M64.5,.5C29.2,.5,.5,29.2,.5,64.5V384.5c0,35.3,28.7,64,64,64H384.5c35.3,0,64-28.7,64-64V64.5C448.5,29.2,419.8,.5,384.5,.5H64.5ZM218.5,240.2L64.7,140.9c1.8-16,15.3-28.4,31.8-28.4H352.5c16.5,0,30,12.4,31.8,28.4l-153.8,99.3c-1.8,1.2-3.9,1.8-6,1.8s-4.2-.6-6-1.8Zm29.4,26.9l136.6-88.2v125.6c0,17.7-14.3,32-32,32H96.5c-17.7,0-32-14.3-32-32v-125.6l136.6,88.2c7,4.5,15.1,6.9,23.4,6.9s16.4-2.4,23.4-6.9h0Z"/>
</svg>