<?xml version="1.0" encoding="UTF-8"?>
<svg id="Layer_1" data-name="Layer 1" xmlns="http://www.w3.org/2000/svg" viewBox="0 0 512 448">
  <defs>
    <style>
      .cls-1 {
        fill: #fb6718;
      }
    </style>
  </defs>
  <path class="cls-1" d="M149.1,32.8l-10.4,31.2H64C28.7,64,0,92.7,0,128V384c0,35.3,28.7,64,64,64H448c35.3,0,64-28.7,64-64V128c0-35.3-28.7-64-64-64h-74.7l-10.4-31.2C356.4,13.2,338.1,0,317.4,0h-122.8c-20.7,0-39,13.2-45.5,32.8Zm106.9,319.2c-53,0-96-43-96-96s43-96,96-96,96,43,96,96-43,96-96,96Z"/>
</svg>