<?xml version="1.0" encoding="UTF-8"?>
<svg id="Layer_1" data-name="Layer 1" xmlns="http://www.w3.org/2000/svg" viewBox="0 0 576 448">
  <defs>
    <style>
      .cls-1 {
        fill: #fb6718;
      }
    </style>
  </defs>
  <path class="cls-1" d="M0,64H576c0-35.3-28.7-64-64-64H64C28.7,0,0,28.7,0,64Zm0,32V384c0,35.3,28.7,64,64,64h448c35.3,0,64-28.7,64-64V96H0ZM64,373.3c0-29.5,23.9-53.3,53.3-53.3h117.4c29.5,0,53.3,23.9,53.3,53.3,0,5.9-4.8,10.7-10.7,10.7H74.7c-5.9,0-10.7-4.8-10.7-10.7Zm112-85.3c-35.3,0-64-28.7-64-64s28.7-64,64-64,64,28.7,64,64-28.7,64-64,64Zm176-112c0-8.8,7.2-16,16-16h128c8.8,0,16,7.2,16,16s-7.2,16-16,16h-128c-8.8,0-16-7.2-16-16Zm0,64c0-8.8,7.2-16,16-16h128c8.8,0,16,7.2,16,16s-7.2,16-16,16h-128c-8.8,0-16-7.2-16-16Zm0,64c0-8.8,7.2-16,16-16h128c8.8,0,16,7.2,16,16s-7.2,16-16,16h-128c-8.8,0-16-7.2-16-16Z"/>
</svg>