<?xml version="1.0" encoding="UTF-8"?>
<svg id="Layer_1" data-name="Layer 1" xmlns="http://www.w3.org/2000/svg" viewBox="0 0 512 512.05">
  <defs>
    <style>
      .cls-1 {
        fill: #fb6718;
      }
    </style>
  </defs>
  <path class="cls-1" d="M499.1,6.35c8.1,6,12.9,15.6,12.9,25.7V368.05c0,44.2-43,80-96,80s-96-35.8-96-80,43-80,96-80c11.2,0,22,1.6,32,4.6V147.05L192,223.85v208.2c0,44.2-43,80-96,80S0,476.25,0,432.05s43-80,96-80c11.2,0,22,1.6,32,4.6V128.05c0-14.1,9.3-26.6,22.8-30.7L470.8,1.35c9.7-2.9,20.2-1.1,28.3,5h0Z"/>
</svg>