<?xml version="1.0" encoding="UTF-8"?>
<svg id="Layer_1" data-name="Layer 1" xmlns="http://www.w3.org/2000/svg" viewBox="0 0 448.04 511.95">
  <defs>
    <style>
      .cls-1 {
        fill: #fb6718;
      }
    </style>
  </defs>
  <path class="cls-1" d="M219.34,.45c3.1-.6,6.3-.6,9.4,0l200,40c11.2,2.2,19.3,12.1,19.3,23.5s-8.1,21.3-19.3,23.5l-76.7,15.4v57.1c0,70.7-57.3,128-128,128S96.04,230.65,96.04,159.95v-57.1l-48-9.6v65.1l15.7,78.4c.9,4.7-.3,9.6-3.3,13.3s-7.6,5.9-12.4,5.9H16.04c-4.8,0-9.3-2.1-12.4-5.9s-4.3-8.6-3.3-13.3l15.7-78.4V86.55C6.54,83.25,.04,74.25,.04,63.95,.04,52.55,8.14,42.65,19.34,40.45L219.34,.45Zm-90.2,322.7l83.2,88.4c6.3,6.7,17,6.7,23.3,0l83.2-88.4c73.7,14.9,129.1,80,129.1,158.1,0,17-13.8,30.7-30.7,30.7H30.74C13.84,511.95,.04,498.15,.04,481.25,.04,403.15,55.54,338.05,129.14,323.15h0Z"/>
</svg>