<?xml version="1.0" encoding="UTF-8"?>
<svg id="Layer_1" data-name="Layer 1" xmlns="http://www.w3.org/2000/svg" viewBox="0 0 576 384">
  <defs>
    <style>
      .cls-1 {
        fill: #fb6718;
      }
    </style>
  </defs>
  <path class="cls-1" d="M0,64C0,28.7,28.7,0,64,0H320c35.3,0,64,28.7,64,64V320c0,35.3-28.7,64-64,64H64C28.7,384,0,355.3,0,320V64Zm559.1-28.2c10.4,5.6,16.9,16.4,16.9,28.2V320c0,11.8-6.5,22.6-16.9,28.2s-23,5-32.9-1.6l-96-64-14.2-9.5V110.9l14.2-9.5,96-64c9.8-6.5,22.4-7.2,32.9-1.6h0Z"/>
</svg>